<svg width="51" height="48" viewBox="0 0 51 48" fill="none" xmlns="http://www.w3.org/2000/svg">
<mask id="mask0_6_179" style="mask-type:luminance" maskUnits="userSpaceOnUse" x="0" y="0" width="51" height="48">
<path d="M51 0H0V47.5922H51V0Z" fill="white"/>
</mask>
<g mask="url(#mask0_6_179)">
<path fill-rule="evenodd" clip-rule="evenodd" d="M27.3215 0H23.6786V15.0518L17.6363 1.096L14.2587 2.36946L20.4575 16.6867L8.75673 5.76781L6.18084 8.1716L17.3955 18.6369L2.86215 12.7114L1.40367 15.8265L16.7817 22.0964H0V25.4958H16.7817L1.40368 31.7656L2.86215 34.8808L17.3955 28.9553L6.18084 39.4206L8.75673 41.8242L20.4575 30.9054L14.2587 45.2228L17.6363 46.4961L23.6786 32.5404V47.5922H27.3215V32.5404L33.3637 46.4961L36.7412 45.2228L30.5426 30.9054L42.2433 41.8242L44.8191 39.4206L33.6044 28.9553L48.1379 34.8808L49.5962 31.7656L34.2184 25.4958H51V22.0964H34.2182L49.5962 15.8265L48.1379 12.7114L33.6044 18.6369L44.8191 8.17157L42.2433 5.76781L30.5426 16.6867L36.7412 2.36946L33.3637 1.096L27.3215 15.0518V0Z" fill="#01D354"/>
</g>
</svg>
