<svg width="608" height="602" viewBox="0 0 608 602" fill="none" xmlns="http://www.w3.org/2000/svg">
<g filter="url(#filter0_f_11_20)">
<path d="M99.4594 171.901C134.932 116.849 209.557 101.776 266.139 138.234C267.077 138.839 268.004 139.456 268.921 140.081C269.498 139.133 270.088 138.189 270.693 137.25C307.152 80.6685 381.336 63.5558 436.388 99.0288C491.44 134.502 506.514 209.127 470.056 265.708C469.451 266.647 468.833 267.574 468.208 268.491C469.156 269.067 470.101 269.657 471.039 270.261C527.62 306.72 544.732 380.904 509.259 435.957C473.786 491.009 399.161 506.082 342.58 469.624C341.642 469.02 340.715 468.404 339.798 467.78C302.745 522.19 230.063 538.191 175.9 503.291C121.736 468.39 106.272 395.593 140.507 339.366C139.56 338.79 138.617 338.201 137.679 337.596C81.0978 301.138 63.9864 226.953 99.4594 171.901Z" fill="url(#paint0_linear_11_20)" fill-opacity="0.85"/>
</g>
<defs>
<filter id="filter0_f_11_20" x="0.974609" y="0.542969" width="606.77" height="601.232" filterUnits="userSpaceOnUse" color-interpolation-filters="sRGB">
<feFlood flood-opacity="0" result="BackgroundImageFix"/>
<feBlend mode="normal" in="SourceGraphic" in2="BackgroundImageFix" result="shape"/>
<feGaussianBlur stdDeviation="40" result="effect1_foregroundBlur_11_20"/>
</filter>
<linearGradient id="paint0_linear_11_20" x1="101.244" y1="169.132" x2="785.978" y2="632.757" gradientUnits="userSpaceOnUse">
<stop stop-color="#FF8198"/>
<stop offset="0.120192" stop-color="#FF8198"/>
<stop offset="0.416676" stop-color="#FF6370"/>
<stop offset="0.789716" stop-color="#F9F62D"/>
</linearGradient>
</defs>
</svg>
